Patient4_TMGait_0pt2_01_right_02_EMG.mot
version=1
nRows=39
nColumns=33
inDegrees=no
endheader
time	1LAddLong	2LGlutMax	3LGlutMed	4LIliopsoas	5LSemiMemb	6LBicFemLong	7LRecFem	8LVastMed	9LVastLat	10LGasMed	11LTibAnt	12lTibPost	13LPeroneusLong	14LSol	15LExtDigLong	16LFlexDigLong	17RAddLong	18RGlutMax	19RGlutMed	20RIliopsoas	21RSemiMemb	22RBicFemLong	23RRecFem	24RVastMed	25RVastLat	26RGasMed	27RTibAnt	28RTibPost	29RPeroneusLong	30RSol	31RExtDigLong	32RFlexDigLong
4.66	-0.007782	0.038147	0.015717	0.007019	0.06958	-0.19394	0.17471	-0.009003	-0.57953	-0.065765	-0.008087	0.011139	0.50751	-0.035553	-0.051422	0.001831	-0.007629	0.028229	-0.17975	-0.025177	-0.011597	-0.028839	0.041962	-0.007935	0.005188	-0.015717	-0.002594	-0.005646	0.33844	0.085754	-0.002441	-0.011902
4.661	-0.003662	0.039673	0.12802	-0.009155	0.033264	-0.16068	0.20432	-0.017853	-0.30136	0.016632	0.004578	0.01236	0.081787	-0.1152	-0.093994	0.003815	0.011597	0.048828	-0.06958	0.11368	-0.005188	-0.040741	0.023956	-0.042267	0.014954	-0.021973	0.10452	-0.003815	0.089111	-0.033112	-0.001526	-0.015106
4.662	-0.000763	-0.061035	-0.020905	0.009308	0.006561	-0.07843	0.2272	-0.016937	-0.026245	0.080109	0.01297	0.010681	-0.26596	-0.077667	-0.005798	0.007324	0.034485	-0.015411	0.1033	0.15335	-0.003967	-0.041199	0.025635	-0.016632	0.00351	-0.023651	0.031586	-0.006714	-0.039063	-0.05249	-0.004883	-0.015259
4.663	0.01297	-0.10757	-0.10101	0.016022	0.022736	-0.045319	0.14587	-0.018311	0.035248	0.090637	0.002899	0.006561	0.08728	0.044708	0.10986	0.001678	0.034332	-0.032043	0.25131	0.12482	-0.00946	-0.025024	0.06424	-0.032806	-0.00351	-0.017242	-0.24628	-0.007019	0.042725	-0.023041	0.000458	-0.019226
4.664	0.015106	-0.087433	-0.13275	0.028992	0.019684	-0.031891	0.14771	-0.02182	0.085297	0.085297	-0.008392	0.017395	0.03006	0.14053	0.094604	-0.00946	0.014801	-0.07782	0.2684	0.12695	-0.001831	-0.008698	-0.018463	-0.052948	0.02533	-0.021515	-0.52307	-0.005798	0.057678	0.045776	-0.002747	-0.014801
4.665	0.005646	-0.11368	-0.15595	0.007935	0.024109	0.038147	0.13779	-0.012665	0.14481	-0.019989	0.001221	0.012665	-0.083771	0.075226	0.042114	-0.036011	-0.007629	-0.057831	-0.3894	0.048981	-0.004883	-0.014191	-0.062408	-0.016632	0.006104	-0.023346	0.027313	-0.005493	0.005646	0.20294	-0.005035	-0.018921
4.666	0.00473	-0.035553	-0.12497	-0.006714	0.00351	0.097198	0.038605	-0.004272	0.16495	-0.17395	-0.009918	0.008698	-0.016937	-0.12573	-0.045624	-0.025787	-0.013733	-0.059509	-0.48019	-0.079803	-0.010681	-0.00946	-0.019531	-0.002441	0.005798	-0.028534	0.44098	-0.005341	-0.00412	0.25177	-0.003052	-0.011139
4.667	-0.007477	-0.050507	-0.15198	0.011292	0	0.16998	-0.012054	-0.007324	0.15167	-0.08316	-0.00885	0.017395	-0.41153	-0.1709	-0.084076	0.091858	-0.028076	-0.04715	-0.23086	-0.070038	-0.00824	-0.013733	0.021973	-0.020752	0.014343	-0.019226	0.23331	-0.008545	0.066833	0.18799	-0.003662	-0.00824
4.668	-0.00351	-0.026855	0.16205	0.011139	0.007172	0.13565	-0.1152	-0.036926	0.034027	-0.00946	-0.000916	0.02533	0.091705	-0.18753	-0.032501	0.07309	-0.04303	-0.027771	0.1831	-0.062103	-0.014801	-0.033569	-0.010376	-0.030518	0.023499	-0.018158	-0.038452	-0.007629	0.11185	0.075073	-0.00473	-0.006714
4.669	0.003357	0.013123	0.054474	0.018616	0.008545	0.1001	-0.25085	-0.007324	0.005798	0.004883	-0.00061	0.018463	0.18219	-0.15045	0.06073	-0.004272	-0.018616	-0.055237	0.55008	0.036011	-0.004578	-0.030975	0.000458	-0.032349	0.015106	-0.023193	-0.35187	-0.005341	0.10895	0.040283	-0.002289	-0.003967
4.67	0.015106	0.074615	-0.03418	0.018616	0.016632	0.029602	-0.24353	-0.036316	0.092468	0.077362	0.002594	0.020142	0.53314	-0.26398	0.005341	-0.003052	-0.018768	-0.085144	0.11566	0.066071	0.000305	-0.00946	0.009918	-0.007324	0.006256	-0.02243	-0.38162	-0.006409	0.080719	-0.008392	-0.00061	-0.005188
4.671	0.017548	0.11917	0.20538	0.017548	0.001068	-0.058746	-0.099945	-0.032654	0.11597	0.10696	-0.018768	0.018463	0.80017	-0.22919	0.046692	-0.012054	-0.003357	-0.08316	-0.2684	-0.019989	-0.005035	-0.027161	-0.029755	-0.007782	0.015411	-0.013275	-0.53955	-0.007324	0.15854	-0.035248	-0.001221	-0.001068
4.672	0.011597	0.14236	0.27847	0.010681	-0.021362	0.036163	-0.11398	-0.03418	0.082397	0.07431	-0.013885	0.018311	0.8548	0.07431	0.11353	-0.024719	0.012665	-0.12024	-0.40527	-0.066376	0.002899	-0.03479	-0.006409	-0.022736	0.008698	-0.012817	-0.26032	-0.006561	0.14084	-0.051117	-0.001831	-0.002594
4.673	0.002136	0.18738	0.20874	0.006866	-0.029907	0.072937	-0.021667	-0.031128	0.037537	-0.008392	-0.036621	0.013733	0.57648	0.12451	0.10941	-0.010529	0.019379	-0.093842	-0.36392	0.026245	-0.005646	-0.031433	0.005341	-0.031891	-0.002899	-0.0177	0.14542	-0.005188	0.044861	-0.010223	-0.002747	-0.007935
4.674	0.005035	0.22186	0.074463	-0.011292	0.006561	-0.029755	0.014496	-0.012054	-0.16068	-0.041199	0.025787	0.010529	-0.4303	-0.024261	-0.022736	-0.002594	0.007935	-0.068054	-0.054779	0.063171	-0.014343	-0.047607	0.040894	-0.061798	0.005493	-0.030518	0.26108	-0.004578	-0.017242	0.093689	-0.002899	-0.020447
4.675	0.024719	0.20187	0.049591	-0.017548	0.018158	-0.015106	-0.10696	-0.010681	-0.098572	-0.048065	0.063477	0.016327	-0.76324	0.008392	-0.1355	0	-0.004578	-0.065765	-0.11002	0.025482	-0.019836	-0.03891	0.05127	-0.081024	0.002594	-0.022736	0.49896	-0.007935	-0.041046	0.059967	0.002594	-0.016937
4.676	0.017548	0.15335	0.018311	-0.031281	0.026703	-0.10941	-0.055847	0.014343	0.02121	-0.053406	0.007172	0.014801	-0.5571	0.037537	-0.15015	-0.000763	-0.006256	-0.019226	0.0383	-0.048828	-0.014801	-0.041046	0.040436	-0.061951	0	-0.021515	0.44159	-0.008087	0.014496	-0.000305	-0.001984	-0.008392
4.677	0.009918	0.094147	-0.066833	-0.002899	-0.007019	-0.17716	-0.051727	0.023651	0.16663	-0.057068	-0.014648	0.014038	-0.12543	0.092316	-0.085754	-0.008392	0.016174	-0.056458	0.14771	0.002899	-0.019531	-0.028992	0.052795	-0.0354	0.007782	-0.021973	0.11566	-0.008545	-0.026855	-0.041504	-0.001984	-0.012665
4.678	0.008698	-0.018005	-0.028992	0.012512	-0.043335	-0.23224	-0.067139	0.031128	0.22003	-0.020142	0.010986	0.019226	-0.000153	-0.020447	-0.086823	-0.013733	0.041504	-0.055084	-0.34866	0.13763	-0.014343	-0.024109	0.045166	-0.05127	0.004425	-0.016479	0.21774	-0.007172	-0.074921	-0.013275	0.009308	-0.014343
4.679	0.003662	-0.08316	-0.016327	0.010986	-0.055847	-0.17364	-0.070648	0.019226	0.19089	-0.041809	0.005035	0.012054	-0.076904	0.056763	0.002899	-0.007172	0.080109	-0.063019	-0.34012	0.030823	-0.030365	-0.037079	0.032043	-0.08194	0.011597	-0.022278	0.40909	-0.008392	-0.074005	-0.060272	-0.002594	-0.014191
4.68	-0.00412	-0.083618	-0.041351	0.007629	-0.014954	-0.14862	-0.033875	-0.00412	0.16785	-0.010986	0.013123	0.012054	-0.072937	0.15823	0.066071	0.008392	0.10803	-0.003967	-0.21774	-0.16861	-0.042572	-0.051575	0.055847	-0.094604	0.004425	-0.019836	0.50949	-0.007935	-0.049591	-0.159	-0.00061	-0.003967
4.681	-0.002441	-0.034485	-0.045776	0.015717	0.057831	-0.033112	0.007935	-0.036011	-0.030518	-0.023804	0.028229	0.009766	0.016022	0.048065	0.11063	0.011902	0.098114	0.007324	-0.32089	-0.21408	-0.062561	-0.030365	0.042877	-0.095978	-0.010071	-0.0177	0.076141	-0.008698	-0.084534	-0.095673	-0.002747	-0.007629
4.682	0.006409	-0.094452	-0.10834	0	0.039368	-0.042725	0.099487	-0.032959	-0.19073	-0.019073	-0.074768	0.01358	-0.068054	0.074463	0.12116	0.005341	0.099945	0.016022	-0.23163	-0.21469	-0.081024	-0.028534	0.041046	-0.097198	-0.010529	-0.014801	-0.1413	-0.006104	0.097961	-0.11246	-0.000305	-0.007629
4.683	0.010834	-0.12329	-0.16281	-0.007782	0.002289	-0.016022	0.121	-0.007629	-0.28229	-0.064545	-0.092468	0.01358	0.023346	0.037537	0.075073	-0.000305	0.04303	0.060577	-0.085144	-0.14252	-0.081635	-0.016937	0.050812	-0.12634	-0.000305	-0.006409	-0.28473	-0.007172	0.21439	-0.26123	-0.002441	-0.012512
4.684	0.008087	-0.088348	-0.16251	-0.021362	0.011597	0.044556	0.13275	-0.00351	-0.31616	-0.016174	-0.018311	0.016327	-0.10407	-0.016785	-0.048065	-0.003052	0.027161	-0.018616	-0.094452	0.21851	-0.072937	-0.017853	0.020447	-0.10742	0.00946	-0.013123	-0.093842	-0.003357	-0.013428	-0.24719	-0.007172	-0.004425
4.685	0.007629	-0.005798	-0.029144	0.015106	0.046692	0.036316	0.15671	-0.010681	-0.26337	-0.012817	0.02655	0.002136	0.12054	0.064392	-0.082855	0.002136	0.040588	-0.056458	-0.10178	0.3688	-0.063171	-0.027466	0.038147	-0.092316	-0.006409	-0.021667	0.084381	-0.004883	-0.63995	-0.12787	0.000763	-0.006256
4.686	0.007629	0.021515	-0.003204	0.024414	0.03418	0.037537	0.072327	-0.020447	-0.15839	-0.006409	-0.013885	0.013733	0.10696	0.10223	-0.13641	0.003204	-0.005493	-0.01236	-0.16327	0.1767	-0.058441	-0.067139	0.053101	-0.12177	-0.01358	-0.023956	0.37537	-0.007477	0.049133	0.075684	-0.003052	0.001831
4.687	0.00351	0.075836	0.083771	0.029602	0.02243	0.044861	0.009918	-0.01236	-0.028534	0.007019	0.016785	-0.00061	0.22797	0.1059	-0.039215	0.007782	-0.034943	-0.087128	-0.14587	0.000153	-0.046844	-0.086365	0.070801	-0.12405	0.009308	-0.019226	0.62073	-0.007782	0.09964	0.22827	-0.00061	-0.011292
4.688	0.007324	0.11017	0.13672	0.01297	0.016479	0.058899	-0.15137	-0.016785	0.11841	-0.013123	-0.010071	0.012817	0.12238	-0.096588	-0.041962	-0.000763	-0.047302	-0.031281	-0.043182	-0.07843	-0.050812	-0.055084	0.0737	-0.060577	-0.012054	-0.022125	0.43045	-0.008698	-0.1033	0.1207	-0.001068	-0.002747
4.689	0.021515	0.12512	0.067444	0.012512	0.011597	0.10269	-0.24735	-0.001831	0.14694	-0.013275	0.023804	0.005035	0.11566	-0.18158	0.01236	0.002289	-0.070496	-0.046844	0.012512	-0.17181	-0.036926	-0.036163	0.018616	-0.055847	-0.00824	-0.005341	-0.015411	-0.009613	-0.014343	0.041656	-0.010529	0.00946
4.69	0.028076	0.15823	0.13199	-0.011749	-0.000916	0.093536	-0.20935	-0.010834	-0.005951	-0.005188	0.03067	0.012207	0.044556	-0.16037	0.072327	0.013428	-0.014343	-0.021362	0.066071	-0.11734	-0.013275	-0.011749	0.003815	0.021973	0.003357	-0.002289	-0.38284	-0.00946	0.039825	0.051575	-0.000458	-0.008698
4.691	0.024414	0.15137	0.24124	0.001373	0.010986	0.063171	-0.18631	-0.007172	0.034332	0.001678	0.003662	0.009003	0.15732	-0.016022	0.076294	0.007477	-0.003357	-0.006256	-0.044708	0.023193	-0.00351	-0.00061	-0.019531	0.014191	0.00885	-0.011292	-0.000305	-0.003662	-0.11032	0.053101	0.010376	-0.011902
4.692	0.027008	0.11139	0.065308	0.001984	0.003204	0.006409	-0.13382	-0.00061	0.159	0.012207	-0.017853	0.012512	0.25421	-0.00824	0.034943	0.004578	-0.019379	-0.016327	-0.23422	0.083466	0.016632	0.003662	-0.019989	0.041351	0.023499	-0.017548	-0.00946	-0.011139	-0.16907	0.064545	0.00061	-0.010376
4.693	0.038452	0.036011	-0.10223	0.008392	-0.001831	-0.095062	-0.077667	-0.013733	0.18234	0.011292	0.000153	0.010071	0.14252	-0.013733	0.048065	0.001221	-0.028839	0.010071	-0.25024	0.091553	0.042267	0.036163	-0.011444	0.035858	0.010681	-0.017548	-0.46295	-0.007782	-0.10819	0.028229	-0.002136	-0.014496
4.694	0.024567	-0.043182	-0.071564	0.018768	0.020752	-0.23956	-0.052948	0.004883	0.093994	-0.035858	0.01297	0.009308	-0.031128	0.0177	0.054016	0.002747	-0.029602	0.019226	-0.088196	0.050964	0.024261	0.007935	0.006714	0.03891	0.00946	-0.00473	-0.32318	-0.008087	-0.14618	0.00824	-0.002747	-0.022278
4.695	0.035095	-0.09491	-0.2829	0.001678	0.029144	-0.12848	-0.069427	0.025482	0.059204	-0.026093	0.00473	0.016327	-0.2475	0.01358	0.043793	0.001221	-0.046539	-0.033417	-0.13596	0.026093	0.018616	0.004883	0.002594	0.004883	0.00412	-0.002136	0.005646	-0.003357	-0.048218	-0.033264	-0.002289	-0.016174
4.696	0.019379	-0.10452	-0.41428	0.00061	0.024414	0.005493	-0.081787	0.011292	0.041199	0.010529	0.00885	0.013428	-0.64484	-0.059357	-0.033722	0.007019	-0.048065	0.004272	-0.048828	-0.010834	0.006104	0.008392	0.02533	0.018616	0.027008	-0.004883	-0.046082	-0.005341	0.13916	-0.10651	-0.002747	-0.01297
4.697	0.023804	-0.082092	-0.3122	0.010986	0.018768	0.001831	-0.071716	-0.024872	0.055389	-0.002441	-0.011292	0.012817	-0.28809	-0.02121	-0.016479	-0.003967	-0.025177	-0.023956	-0.26581	-0.019379	0.000305	-0.004578	-0.027924	-0.000458	0.010681	-0.011597	0.19119	-0.005188	0.056305	-0.078888	-0.00061	-0.009155
4.698	0.005341	-0.075378	-0.20523	0.011292	-0.002136	0.062103	-0.084076	-0.043488	-0.033112	-0.016174	0.000763	0.007477	-0.001984	-0.032806	0.006104	0.00412	-0.01709	0.0383	-0.35126	0.04715	-0.010681	-0.012665	0.00473	-0.009918	0.000916	-0.01236	0.21393	-0.004578	-0.004883	-0.063477	-0.00412	-0.011749
